<?xml version="1.0" encoding="UTF-8" standalone="no"?>
<!-- Created with Inkscape (http://www.inkscape.org/) -->

<svg
   width="200.00383mm"
   height="69.473991mm"
   viewBox="0 0 200.00383 69.473991"
   version="1.1"
   id="svg1"
   xmlns:xlink="http://www.w3.org/1999/xlink"
   xmlns="http://www.w3.org/2000/svg"
   xmlns:svg="http://www.w3.org/2000/svg">
  <defs
     id="defs1">
    <linearGradient
       id="linearGradient4">
      <stop
         style="stop-color:#00ff85;stop-opacity:1;"
         offset="0"
         id="stop4" />
      <stop
         style="stop-color:#00ffbe;stop-opacity:1;"
         offset="1"
         id="stop5" />
    </linearGradient>
    <linearGradient
       xlink:href="#linearGradient4"
       id="linearGradient8"
       gradientUnits="userSpaceOnUse"
       gradientTransform="translate(-2.2684267,-63.21849)"
       x1="7.2665157"
       y1="138.26292"
       x2="207.27034"
       y2="138.26292" />
    <linearGradient
       xlink:href="#linearGradient4"
       id="linearGradient9"
       gradientUnits="userSpaceOnUse"
       gradientTransform="translate(-2.2684267,-63.21849)"
       x1="7.8627539"
       y1="138.26292"
       x2="206.6741"
       y2="138.26292" />
  </defs>
  <g
     id="layer1"
     transform="translate(-4.9980874,-40.308865)">
    <path
       style="font-size:70.9787px;line-height:1.25;font-family:'Cairo Play';-inkscape-font-specification:'Cairo Play, @wght=600';font-variation-settings:'wght' 600;fill:url(#linearGradient8);stroke:url(#linearGradient9);stroke-width:1.19248"
       d="M 5.5943274,109.18661 V 58.152929 h 6.6010186 v 2.484254 q 1.064681,-0.638808 2.76817,-1.348595 1.703488,-0.780766 3.619913,-1.277617 1.916425,-0.567829 3.690893,-0.567829 4.613615,0 7.452763,1.916425 2.910127,1.916425 4.258722,5.96221 1.419574,3.974807 1.419574,10.291912 0,6.884933 -1.63251,11.072677 -1.561532,4.116764 -5.039488,5.96221 -3.406977,1.774468 -8.872337,1.774468 -2.129361,0 -4.329701,-0.283915 -2.129361,-0.283915 -3.335999,-0.496851 V 109.18661 Z M 19.222238,88.744748 q 3.548935,0 5.607317,-1.348595 2.129361,-1.348596 2.981105,-4.258722 0.851744,-2.910127 0.851744,-7.594721 0,-6.813955 -1.987403,-9.511146 -1.987404,-2.768169 -5.607317,-2.768169 -1.561532,0 -3.26502,0.425872 -1.63251,0.354894 -3.123063,0.922723 -1.490553,0.496851 -2.484255,1.13566 v 22.35829 q 1.064681,0.141957 3.052084,0.425872 2.058383,0.212936 3.974808,0.212936 z m 24.132729,4.968509 V 43.034466 h 6.601019 v 16.89293 q 1.277616,-0.567829 2.981105,-1.06468 1.774467,-0.56783 3.761871,-0.993702 1.987404,-0.425872 3.761871,-0.425872 3.690892,0 6.033189,0.993702 2.413276,0.922723 3.761871,3.052084 1.348596,2.058382 1.845447,5.394381 0.567829,3.335999 0.567829,8.020593 V 93.713257 H 65.997171 V 75.329774 q 0,-4.400679 -0.49685,-7.026891 -0.496851,-2.626212 -1.987404,-3.761871 -1.419574,-1.206638 -4.400679,-1.206638 -1.63251,0 -3.406978,0.283915 -1.703489,0.283914 -3.26502,0.780765 -1.490553,0.425872 -2.484254,0.851745 v 28.462458 z m 38.47044,0 V 58.152929 h 6.601018 v 4.613615 q 1.277617,-0.922723 3.265021,-1.987403 1.987403,-1.064681 4.3297,-1.987404 2.413276,-0.993702 4.755574,-1.419574 v 6.601019 q -2.271319,0.425872 -4.684595,1.206638 -2.342297,0.780766 -4.400679,1.703489 -1.987404,0.851744 -3.265021,1.561531 v 25.268417 z m 32.934183,0.709787 q -5.03949,0 -7.6657,-2.768169 -2.62622,-2.76817 -2.62622,-8.162551 0,-3.619913 1.27762,-5.820253 1.27762,-2.271318 3.76187,-3.406978 2.55524,-1.135659 6.31711,-1.348595 l 10.29191,-0.993702 v -2.768169 q 0,-3.335999 -1.49055,-4.684594 -1.49056,-1.419574 -4.47166,-1.419574 -1.84545,0 -4.3297,0.141957 -2.48426,0.141958 -4.89753,0.354894 -2.41328,0.212936 -4.3297,0.425872 l -0.28392,-4.826551 q 1.77447,-0.425873 4.18774,-0.780766 2.48426,-0.354894 5.18145,-0.638808 2.69719,-0.283915 4.96851,-0.283915 4.18774,0 6.88493,1.206638 2.69719,1.206638 3.97481,3.761871 1.27762,2.555233 1.27762,6.601019 v 17.46076 q 0.14195,1.419574 1.13565,2.129361 1.06469,0.638808 2.62622,0.851744 l -0.21294,4.89753 q -0.9937,0 -1.9874,-0.07098 -0.9937,0 -1.84545,-0.141957 -0.85174,-0.141957 -1.63251,-0.354893 -1.13566,-0.283915 -2.05838,-0.780766 -0.85175,-0.56783 -1.63251,-1.277617 -1.27762,0.56783 -3.336,1.206638 -2.05838,0.638808 -4.40068,1.064681 -2.3423,0.425872 -4.68459,0.425872 z m 1.34859,-5.252424 q 1.77447,0 3.61992,-0.354893 1.91642,-0.354894 3.61991,-0.780766 1.70349,-0.496851 2.76817,-0.851744 V 76.536412 l -9.44017,0.922723 q -2.9811,0.212936 -4.25872,1.703489 -1.27762,1.419574 -1.27762,4.116764 0,2.768169 1.20664,4.329701 1.27762,1.561531 3.76187,1.561531 z m 38.11552,5.252424 q -1.84545,0 -4.25872,-0.212936 -2.3423,-0.212936 -4.6846,-0.496851 -2.27131,-0.354894 -3.9748,-0.709787 l 0.28391,-5.323403 q 1.77447,0.212937 4.04579,0.496851 2.27132,0.283915 4.40068,0.496851 2.20034,0.141958 3.47795,0.141958 2.69719,0 4.47166,-0.496851 1.77447,-0.496851 2.69719,-1.63251 0.92272,-1.206638 0.92272,-3.26502 0,-1.632511 -0.70978,-2.484255 -0.70979,-0.922723 -2.62621,-1.490553 -1.91643,-0.638808 -5.60732,-1.206637 -3.97481,-0.638809 -6.60102,-1.561532 -2.62621,-0.993702 -3.90383,-2.981105 -1.27762,-1.987404 -1.27762,-5.536339 0,-4.116764 1.84545,-6.388083 1.91643,-2.342297 4.89753,-3.335998 3.05209,-0.993702 6.38808,-0.993702 2.12937,0 4.54264,0.212936 2.48426,0.212936 4.75557,0.567829 2.27132,0.354894 3.90383,0.638809 l -0.21293,5.394381 q -1.70349,-0.283915 -3.97481,-0.496851 -2.27132,-0.283915 -4.54264,-0.425872 -2.27132,-0.141958 -3.9748,-0.141958 -1.98741,0 -3.61992,0.425873 -1.56153,0.354893 -2.48425,1.419574 -0.85175,0.993701 -0.85175,2.910126 0,1.419574 0.63881,2.271319 0.63881,0.851744 2.55523,1.490552 1.91643,0.56783 5.46536,1.135659 4.40068,0.709787 7.0269,1.774468 2.62621,1.06468 3.83284,3.052084 1.20664,1.987403 1.20664,5.46536 0,4.187743 -1.70349,6.671997 -1.63251,2.484255 -4.75557,3.548935 -3.12306,1.064681 -7.59472,1.064681 z m 34.70862,0 q -5.46536,0 -8.6594,-1.987404 -3.12307,-2.058382 -4.54264,-6.104168 -1.41958,-4.045786 -1.41958,-10.149954 0,-6.671997 1.84545,-10.788762 1.91643,-4.116764 5.3234,-6.033189 3.40698,-1.916425 8.16255,-1.916425 7.31081,0 11.0017,3.974807 3.76187,3.903828 3.76187,12.634208 l -0.35489,4.471658 h -22.9971 q 0.071,5.110467 1.91643,7.736678 1.84544,2.555234 6.67199,2.555234 2.05839,0 4.47166,-0.07098 2.48426,-0.141957 4.89753,-0.283915 2.41328,-0.141957 4.11677,-0.283915 l 0.14195,4.968509 q -1.77446,0.283915 -4.25872,0.56783 -2.48425,0.354893 -5.18144,0.496851 -2.62622,0.212936 -4.89753,0.212937 z m -7.87864,-20.796759 h 16.75097 q 0,-6.033189 -1.9874,-8.446465 -1.91642,-2.413276 -6.17515,-2.413276 -2.76817,0 -4.68459,1.064681 -1.91643,1.06468 -2.91013,3.477956 -0.9937,2.342297 -0.9937,6.317104 z m 2.55523,-21.577524 -2.20034,-4.116765 15.04749,-7.026891 2.76817,5.46536 z"
       id="text7"
       aria-label="phrasé" />
  </g>
</svg>
