<svg xmlns="http://www.w3.org/2000/svg" version="1.0" width="647.000000pt" height="247.000000pt" viewBox="0 0 647.000000 247.000000" preserveAspectRatio="xMidYMid meet">
<metadata>
Created by potrace 1.16, written by Peter Selinger 2001-2019
</metadata>
<g transform="translate(0.000000,247.000000) scale(0.100000,-0.100000)" fill="#000000" stroke="none">
<path d="M5773 2137 c-122 -56 -222 -105 -223 -110 0 -4 14 -31 30 -61 l30 -53 233 84 c127 47 232 85 232 86 1 1 -17 37 -40 79 l-40 77 -222 -102z" fill="#fd9820"/>
<path d="M1342 1413 l3 -768 98 -3 97 -3 0 429 c0 338 3 432 13 440 7 6 48 21 91 32 62 17 99 21 183 18 l105 -3 33 -37 c55 -60 58 -78 64 -493 l6 -380 98 -3 97 -3 0 363 c0 488 -12 558 -105 655 -65 67 -104 78 -265 77 -111 -1 -135 -4 -217 -31 -51 -17 -95 -28 -98 -25 -3 3 -5 117 -5 254 l0 248 -100 0 -100 0 2 -767z"/>
<path d="M555 1716 c-38 -12 -89 -32 -112 -45 l-43 -21 0 35 0 35 -102 0 -103 0 2 -772 3 -773 97 0 98 0 3 233 2 233 73 -8 c39 -4 120 -8 178 -7 249 3 366 89 426 314 26 96 25 396 -1 502 -50 206 -166 299 -372 298 -54 -1 -101 -8 -149 -24z m170 -157 c97 -27 148 -106 166 -256 20 -169 -10 -365 -66 -432 -14 -16 -47 -40 -73 -53 -40 -19 -63 -23 -152 -23 -58 0 -126 4 -152 8 l-48 8 0 343 0 344 52 22 c55 24 155 48 203 49 17 1 48 -4 70 -10z"/>
<path d="M3000 1724 c-25 -8 -97 -40 -160 -71 -63 -32 -118 -59 -122 -61 -5 -2 -8 26 -8 62 l0 66 -100 0 -100 0 2 -537 3 -538 97 -3 98 -3 2 388 3 387 99 44 c55 24 138 54 185 66 l86 23 3 96 c3 110 4 110 -88 81z"/>
<path d="M3450 1724 c-58 -7 -123 -17 -145 -22 l-40 -8 0 -73 0 -72 105 8 c58 4 171 8 252 8 133 0 149 -2 175 -21 15 -11 34 -34 42 -50 17 -34 28 -179 14 -187 -5 -3 -92 -13 -194 -22 -287 -25 -370 -59 -425 -172 -26 -52 -29 -68 -29 -158 0 -118 19 -182 70 -242 89 -105 291 -119 538 -38 l79 25 28 -20 c44 -31 100 -48 176 -51 l69 -4 3 72 3 71 -34 11 c-73 25 -71 14 -78 395 -4 286 -8 348 -22 384 -36 92 -92 140 -194 167 -70 18 -247 18 -393 -1z m410 -723 l0 -159 -48 -16 c-66 -22 -195 -46 -248 -46 -106 0 -158 57 -159 175 0 85 22 131 79 159 37 18 212 42 324 45 l52 1 0 -159z"/>
<path d="M4545 1722 c-80 -24 -117 -45 -159 -88 -52 -54 -69 -98 -74 -194 -6 -118 8 -164 68 -222 56 -54 113 -75 300 -107 216 -38 255 -63 255 -161 0 -69 -20 -103 -81 -134 -34 -18 -57 -21 -174 -21 -74 0 -181 7 -238 14 -57 7 -105 11 -107 9 -3 -2 -6 -38 -7 -79 l-3 -74 60 -12 c33 -7 124 -17 201 -24 275 -23 449 27 511 146 59 111 54 290 -9 376 -40 54 -142 94 -317 124 -206 36 -261 67 -261 149 0 81 51 130 148 142 53 7 374 -11 419 -22 18 -5 21 1 27 66 5 47 4 76 -3 83 -19 19 -163 37 -331 42 -140 4 -174 2 -225 -13z"/>
<path d="M5651 1725 c-151 -43 -244 -138 -296 -305 -26 -82 -32 -340 -11 -449 28 -148 94 -254 190 -303 53 -27 157 -48 242 -48 75 0 377 26 407 36 14 4 17 18 17 77 l0 72 -102 -6 c-199 -13 -372 -10 -419 6 -84 30 -135 109 -146 230 l-6 65 349 2 349 3 8 75 c9 82 -3 213 -28 297 -32 107 -112 191 -222 233 -77 29 -253 37 -332 15z m234 -156 c50 -14 116 -81 132 -135 7 -21 15 -72 19 -112 l7 -72 -257 0 -256 0 0 43 c0 61 27 156 55 197 25 37 67 66 113 80 40 12 141 11 187 -1z"/>
</g>
</svg>